<svg xmlns="http://www.w3.org/2000/svg" viewBox="0 0 200 200" width="200" height="200">
<style>
@keyframes breathe{0%,100%{transform:translateY(0)}50%{transform:translateY(-3px)}}
@keyframes breatheSlow{0%,100%{transform:translateY(0)}50%{transform:translateY(-2px)}}
@keyframes float{0%,100%{transform:translateY(0) rotate(0deg)}50%{transform:translateY(-5px) rotate(1deg)}}
@keyframes wobble{0%,100%{transform:rotate(0deg)}25%{transform:rotate(-3deg)}75%{transform:rotate(3deg)}}
@keyframes shake{0%,100%{transform:translateX(0)}25%{transform:translateX(-2px)}75%{transform:translateX(2px)}}
@keyframes sway{0%,100%{transform:rotate(-4deg)}50%{transform:rotate(4deg)}}
@keyframes wave{0%,100%{transform:rotate(0deg)}50%{transform:rotate(18deg)}}
@keyframes pulse{0%,100%{opacity:0.4}50%{opacity:1}}
@keyframes zz{0%{opacity:0;transform:translate(0,0) scale(0.5)}50%{opacity:1;transform:translate(8px,-15px) scale(1)}100%{opacity:0;transform:translate(16px,-30px) scale(0.8)}}
@keyframes typepress{0%,100%{transform:translateY(0)}50%{transform:translateY(2px)}}
@keyframes bounce{0%,100%{transform:translateY(0)}30%{transform:translateY(-6px)}60%{transform:translateY(-2px)}}
@keyframes glow{0%,100%{filter:brightness(1)}50%{filter:brightness(1.15)}}
@keyframes swayTentacle{0%,100%{transform:rotate(-6deg)}50%{transform:rotate(6deg)}}
</style>
<g style="animation:bounce 1.8s ease-in-out infinite"><g transform="translate(100,130)"><ellipse cx="-32" cy="10" rx="10" ry="19" fill="#9B6BB0" opacity="0.9"/><ellipse cx="-32" cy="24" rx="7" ry="6" fill="#B08ACC"/><ellipse cx="-16" cy="13" rx="10" ry="21" fill="#9B6BB0"/><ellipse cx="-16" cy="29" rx="7" ry="6" fill="#B08ACC"/><ellipse cx="0" cy="14" rx="10" ry="22" fill="#9B6BB0"/><ellipse cx="0" cy="31" rx="7" ry="6" fill="#B08ACC"/><ellipse cx="16" cy="13" rx="10" ry="21" fill="#9B6BB0"/><ellipse cx="16" cy="29" rx="7" ry="6" fill="#B08ACC"/><ellipse cx="32" cy="10" rx="10" ry="19" fill="#9B6BB0" opacity="0.9"/><ellipse cx="32" cy="24" rx="7" ry="6" fill="#B08ACC"/></g><ellipse cx="100" cy="90" rx="50" ry="47" fill="#C8A2D8"/><ellipse cx="96" cy="84" rx="20" ry="15" fill="#D8BAE8" opacity="0.25"/><ellipse cx="72" cy="101" rx="8" ry="5" fill="#F4A0B0" opacity="0.5"/><ellipse cx="128" cy="101" rx="8" ry="5" fill="#F4A0B0" opacity="0.5"/>
<path d="M77,84 Q85,77 93,84" stroke="#2D2D2D" stroke-width="3" fill="none" stroke-linecap="round"/><path d="M107,84 Q115,77 123,84" stroke="#2D2D2D" stroke-width="3" fill="none" stroke-linecap="round"/>
<ellipse cx="100" cy="110" rx="5.5" ry="4.5" fill="#E87090" opacity="0.8"/></g><rect x="40" y="30" width="22" height="16" rx="2" fill="#E8E0F0" stroke="#C0B0D0" stroke-width="1"/><text x="44" y="42" font-size="7" fill="#7B68AE">Aa</text><circle cx="100" cy="26" r="10" fill="none" stroke="#B8D4E8" stroke-width="2"/><line x1="107" y1="33" x2="113" y2="39" stroke="#B8D4E8" stroke-width="2.5" stroke-linecap="round"/><rect x="140" y="30" width="18" height="22" rx="2" fill="#D4A574" stroke="#B8956A" stroke-width="1"/><line x1="143" y1="35" x2="155" y2="35" stroke="#8B6914" stroke-width="0.7"/><line x1="143" y1="39" x2="155" y2="39" stroke="#8B6914" stroke-width="0.7"/><rect x="50" y="53" width="14" height="18" rx="2" fill="#8B6914" opacity="0.6"/><ellipse cx="57" cy="51" rx="6" ry="2" fill="#8B6914"/>
<ellipse cx="100" cy="170" rx="48" ry="7" fill="#D4C7E0" opacity="0.45"/>
</svg>